<?xml version="1.0" standalone="no"?>
<!DOCTYPE svg PUBLIC "-//W3C//DTD SVG 20010904//EN"
 "http://www.w3.org/TR/2001/REC-SVG-20010904/DTD/svg10.dtd">
<svg version="1.0" xmlns="http://www.w3.org/2000/svg"
 width="613.000000pt" height="613.000000pt" viewBox="0 0 613.000000 613.000000"
 preserveAspectRatio="xMidYMid meet">
<metadata>
Created by potrace 1.14, written by Peter Selinger 2001-2017
</metadata>
<g transform="translate(0.000000,613.000000) scale(0.100000,-0.100000)"
fill="#000000" stroke="none">
<path d="M4675 6088 c-258 -70 -709 -192 -1090 -293 -88 -24 -239 -64 -335
-90 -96 -26 -182 -49 -190 -50 -8 -2 -116 -32 -240 -65 -124 -34 -233 -63
-243 -65 -10 -2 -78 -21 -150 -41 -115 -31 -157 -43 -227 -59 -8 -2 -141 -38
-295 -80 -154 -42 -289 -78 -300 -81 -11 -2 -60 -15 -110 -29 -122 -33 -274
-74 -340 -91 -5 -1 -113 -30 -240 -64 -213 -58 -470 -127 -505 -135 -8 -2
-103 -28 -211 -57 l-195 -53 37 -140 c21 -77 45 -167 54 -200 9 -33 18 -67 20
-75 2 -8 31 -118 65 -245 34 -126 66 -243 70 -260 4 -16 31 -117 60 -223 28
-107 54 -205 56 -220 3 -14 7 -29 10 -34 3 -4 18 -56 33 -115 68 -257 119
-447 157 -588 14 -49 27 -97 28 -105 2 -8 20 -76 40 -150 21 -74 39 -142 41
-150 4 -17 32 -123 106 -400 64 -236 84 -312 110 -407 11 -43 87 -328 169
-633 82 -305 158 -591 170 -635 32 -120 61 -229 65 -241 2 -8 18 -7 57 3 29 8
94 25 143 38 50 13 209 56 355 95 146 40 272 73 280 76 8 2 42 11 75 20 33 9
65 17 70 18 6 2 30 8 55 15 25 7 53 15 62 17 37 8 59 14 273 72 121 33 317 86
435 117 118 31 240 64 270 73 30 8 60 16 65 18 6 1 55 14 110 29 55 15 156 42
225 60 69 18 438 117 820 220 668 179 868 233 900 240 8 2 82 22 163 44 82 23
158 43 170 45 51 11 293 79 299 85 4 3 -4 47 -18 96 -30 112 -66 245 -144 540
-33 127 -67 253 -75 280 -8 28 -39 142 -69 255 -30 113 -69 257 -86 320 -17
63 -32 122 -35 130 -2 8 -13 51 -25 95 -12 44 -27 103 -35 130 -7 28 -59 221
-115 430 -56 209 -104 387 -106 395 -2 8 -11 42 -20 75 -9 33 -18 67 -20 75
-2 8 -22 83 -44 165 -22 83 -42 157 -44 165 -6 22 -44 167 -126 470 -40 146
-73 272 -75 280 -2 8 -12 47 -23 85 -10 39 -65 244 -122 456 -58 218 -108 385
-114 385 -6 0 -74 -17 -151 -38z"/>
</g>
</svg>
