<svg width="294" height="23" viewBox="0 0 294 23" fill="none" xmlns="http://www.w3.org/2000/svg">
<path d="M0 5.75L17.0753 1.17468L21.6506 18.25L4.57532 22.8253L0 5.75Z" fill="#6E68FE"/>
<path d="M36.7874 14.7637H31.4846V10.7939H36.7874C37.51 10.7939 38.0959 10.6719 38.5452 10.4277C38.9944 10.1836 39.3215 9.84668 39.5266 9.41699C39.7415 8.97754 39.8489 8.48438 39.8489 7.9375C39.8489 7.35156 39.7415 6.80957 39.5266 6.31152C39.3215 5.81348 38.9944 5.41309 38.5452 5.11035C38.0959 4.79785 37.51 4.6416 36.7874 4.6416H33.4182V22H28.2766V0.671875H36.7874C38.4963 0.671875 39.9661 0.984375 41.1965 1.60938C42.4368 2.23438 43.3889 3.09375 44.053 4.1875C44.717 5.27148 45.0491 6.51172 45.0491 7.9082C45.0491 9.28516 44.717 10.4863 44.053 11.5117C43.3889 12.5371 42.4368 13.3379 41.1965 13.9141C39.9661 14.4805 38.4963 14.7637 36.7874 14.7637Z" fill="#6E68FE"/>
<path d="M63.8377 9.13867V13.0938H52.8954V9.13867H63.8377ZM54.6092 0.671875V22H49.4676V0.671875H54.6092ZM67.2948 0.671875V22H62.1678V0.671875H67.2948Z" fill="#6E68FE"/>
<path d="M90.2583 10.9111V11.7754C90.2583 13.4062 90.0288 14.8711 89.5698 16.1699C89.1206 17.459 88.4809 18.5625 87.6508 19.4805C86.8208 20.3887 85.8393 21.0869 84.7065 21.5752C83.5737 22.0537 82.3237 22.293 80.9565 22.293C79.5795 22.293 78.3198 22.0537 77.1772 21.5752C76.0444 21.0869 75.0581 20.3887 74.2182 19.4805C73.3881 18.5625 72.7436 17.459 72.2846 16.1699C71.8354 14.8711 71.6108 13.4062 71.6108 11.7754V10.9111C71.6108 9.28027 71.8354 7.81543 72.2846 6.5166C72.7436 5.21777 73.3833 4.11426 74.2036 3.20605C75.0336 2.28809 76.0151 1.58984 77.1479 1.11133C78.2905 0.623047 79.5502 0.378906 80.9272 0.378906C82.2944 0.378906 83.5444 0.623047 84.6772 1.11133C85.8198 1.58984 86.8061 2.28809 87.6362 3.20605C88.4663 4.11426 89.1108 5.21777 89.5698 6.5166C90.0288 7.81543 90.2583 9.28027 90.2583 10.9111ZM85.0434 11.7754V10.8818C85.0434 9.82715 84.9506 8.89941 84.7651 8.09863C84.5893 7.28809 84.3256 6.60938 83.9741 6.0625C83.6225 5.51562 83.1879 5.10547 82.6704 4.83203C82.1626 4.54883 81.5815 4.40723 80.9272 4.40723C80.2436 4.40723 79.6479 4.54883 79.1401 4.83203C78.6323 5.10547 78.2075 5.51562 77.8657 6.0625C77.5239 6.60938 77.2651 7.28809 77.0893 8.09863C76.9233 8.89941 76.8403 9.82715 76.8403 10.8818V11.7754C76.8403 12.8203 76.9233 13.748 77.0893 14.5586C77.2651 15.3594 77.5239 16.0381 77.8657 16.5947C78.2172 17.1514 78.6469 17.5713 79.1547 17.8545C79.6723 18.1377 80.2729 18.2793 80.9565 18.2793C81.6108 18.2793 82.1918 18.1377 82.6997 17.8545C83.2075 17.5713 83.6323 17.1514 83.9741 16.5947C84.3256 16.0381 84.5893 15.3594 84.7651 14.5586C84.9506 13.748 85.0434 12.8203 85.0434 11.7754Z" fill="#6E68FE"/>
<path d="M103.642 0.671875V22H98.5V0.671875H103.642ZM110.058 0.671875V4.6416H92.2305V0.671875H110.058Z" fill="#6E68FE"/>
<path d="M131.527 10.9111V11.7754C131.527 13.4062 131.298 14.8711 130.839 16.1699C130.389 17.459 129.75 18.5625 128.92 19.4805C128.09 20.3887 127.108 21.0869 125.975 21.5752C124.842 22.0537 123.592 22.293 122.225 22.293C120.848 22.293 119.589 22.0537 118.446 21.5752C117.313 21.0869 116.327 20.3887 115.487 19.4805C114.657 18.5625 114.012 17.459 113.553 16.1699C113.104 14.8711 112.88 13.4062 112.88 11.7754V10.9111C112.88 9.28027 113.104 7.81543 113.553 6.5166C114.012 5.21777 114.652 4.11426 115.472 3.20605C116.302 2.28809 117.284 1.58984 118.417 1.11133C119.559 0.623047 120.819 0.378906 122.196 0.378906C123.563 0.378906 124.813 0.623047 125.946 1.11133C127.089 1.58984 128.075 2.28809 128.905 3.20605C129.735 4.11426 130.38 5.21777 130.839 6.5166C131.298 7.81543 131.527 9.28027 131.527 10.9111ZM126.312 11.7754V10.8818C126.312 9.82715 126.219 8.89941 126.034 8.09863C125.858 7.28809 125.594 6.60938 125.243 6.0625C124.891 5.51562 124.457 5.10547 123.939 4.83203C123.431 4.54883 122.85 4.40723 122.196 4.40723C121.512 4.40723 120.917 4.54883 120.409 4.83203C119.901 5.10547 119.476 5.51562 119.134 6.0625C118.793 6.60938 118.534 7.28809 118.358 8.09863C118.192 8.89941 118.109 9.82715 118.109 10.8818V11.7754C118.109 12.8203 118.192 13.748 118.358 14.5586C118.534 15.3594 118.793 16.0381 119.134 16.5947C119.486 17.1514 119.916 17.5713 120.423 17.8545C120.941 18.1377 121.542 18.2793 122.225 18.2793C122.88 18.2793 123.461 18.1377 123.968 17.8545C124.476 17.5713 124.901 17.1514 125.243 16.5947C125.594 16.0381 125.858 15.3594 126.034 14.5586C126.219 13.748 126.312 12.8203 126.312 11.7754Z" fill="#6E68FE"/>
<path d="M153.289 10.6035V19.3633C152.928 19.7637 152.371 20.1934 151.619 20.6523C150.877 21.1016 149.94 21.4873 148.807 21.8096C147.674 22.1318 146.341 22.293 144.808 22.293C143.392 22.293 142.108 22.0684 140.955 21.6191C139.803 21.1602 138.812 20.4912 137.982 19.6123C137.161 18.7236 136.527 17.6396 136.077 16.3604C135.638 15.0713 135.418 13.5967 135.418 11.9365V10.75C135.418 9.08984 135.643 7.61523 136.092 6.32617C136.541 5.03711 137.171 3.95312 137.982 3.07422C138.802 2.18555 139.764 1.51172 140.867 1.05273C141.981 0.59375 143.201 0.364258 144.53 0.364258C146.492 0.364258 148.089 0.676758 149.32 1.30176C150.55 1.91699 151.483 2.77148 152.117 3.86523C152.752 4.94922 153.138 6.2041 153.275 7.62988H148.338C148.24 6.92676 148.055 6.33105 147.781 5.84277C147.518 5.34473 147.137 4.96875 146.639 4.71484C146.141 4.45117 145.496 4.31934 144.705 4.31934C144.09 4.31934 143.529 4.45117 143.021 4.71484C142.523 4.97852 142.098 5.37891 141.746 5.91602C141.395 6.44336 141.121 7.10742 140.926 7.9082C140.74 8.70898 140.648 9.64648 140.648 10.7207V11.9365C140.648 13.001 140.736 13.9336 140.911 14.7344C141.097 15.5352 141.37 16.2041 141.732 16.7412C142.103 17.2686 142.572 17.6689 143.138 17.9424C143.714 18.2061 144.393 18.3379 145.174 18.3379C145.721 18.3379 146.19 18.2939 146.58 18.2061C146.971 18.1084 147.293 17.9912 147.547 17.8545C147.811 17.708 148.011 17.5713 148.148 17.4443V14.1338H144.573V10.6035H153.289Z" fill="#6E68FE"/>
<path d="M157.942 0.671875H166.336C167.976 0.671875 169.402 0.916016 170.613 1.4043C171.824 1.89258 172.757 2.61523 173.411 3.57227C174.075 4.5293 174.407 5.71094 174.407 7.11719C174.407 8.33789 174.217 9.3584 173.836 10.1787C173.455 10.999 172.923 11.6777 172.239 12.2148C171.565 12.7422 170.779 13.1768 169.881 13.5186L168.196 14.4707H161.15L161.121 10.501H166.336C166.99 10.501 167.532 10.3838 167.962 10.1494C168.391 9.91504 168.714 9.58301 168.929 9.15332C169.153 8.71387 169.265 8.19141 169.265 7.58594C169.265 6.9707 169.153 6.44336 168.929 6.00391C168.704 5.56445 168.372 5.22754 167.932 4.99316C167.503 4.75879 166.971 4.6416 166.336 4.6416H163.084V22H157.942V0.671875ZM169.617 22L164.9 12.5664L170.349 12.5371L175.125 21.7803V22H169.617Z" fill="#6E68FE"/>
<path d="M188.201 5.1543L183 22H177.478L185.315 0.671875H188.816L188.201 5.1543ZM192.507 22L187.292 5.1543L186.619 0.671875H190.164L198.044 22H192.507ZM192.302 14.0459V18.0156H181.36V14.0459H192.302Z" fill="#6E68FE"/>
<path d="M209.773 14.7637H204.47V10.7939H209.773C210.495 10.7939 211.081 10.6719 211.53 10.4277C211.98 10.1836 212.307 9.84668 212.512 9.41699C212.727 8.97754 212.834 8.48438 212.834 7.9375C212.834 7.35156 212.727 6.80957 212.512 6.31152C212.307 5.81348 211.98 5.41309 211.53 5.11035C211.081 4.79785 210.495 4.6416 209.773 4.6416H206.403V22H201.262V0.671875H209.773C211.481 0.671875 212.951 0.984375 214.182 1.60938C215.422 2.23438 216.374 3.09375 217.038 4.1875C217.702 5.27148 218.034 6.51172 218.034 7.9082C218.034 9.28516 217.702 10.4863 217.038 11.5117C216.374 12.5371 215.422 13.3379 214.182 13.9141C212.951 14.4805 211.481 14.7637 209.773 14.7637Z" fill="#6E68FE"/>
<path d="M236.823 9.13867V13.0938H225.881V9.13867H236.823ZM227.594 0.671875V22H222.453V0.671875H227.594ZM240.28 0.671875V22H235.153V0.671875H240.28Z" fill="#6E68FE"/>
<path d="M250.66 0.671875V22H245.533V0.671875H250.66Z" fill="#6E68FE"/>
<path d="M268.057 14.7783H273.184C273.116 16.2627 272.716 17.5713 271.983 18.7041C271.251 19.8369 270.235 20.7207 268.936 21.3555C267.647 21.9805 266.124 22.293 264.366 22.293C262.94 22.293 261.666 22.0537 260.543 21.5752C259.43 21.0967 258.482 20.4082 257.701 19.5098C256.93 18.6113 256.339 17.5225 255.929 16.2432C255.528 14.9639 255.328 13.5234 255.328 11.9219V10.7646C255.328 9.16309 255.538 7.72266 255.958 6.44336C256.388 5.1543 256.993 4.06055 257.774 3.16211C258.565 2.25391 259.513 1.56055 260.616 1.08203C261.72 0.603516 262.945 0.364258 264.293 0.364258C266.148 0.364258 267.716 0.696289 268.995 1.36035C270.274 2.02441 271.265 2.9375 271.969 4.09961C272.672 5.25195 273.087 6.56543 273.214 8.04004H268.087C268.067 7.23926 267.931 6.57031 267.677 6.0332C267.423 5.48633 267.022 5.07617 266.475 4.80273C265.929 4.5293 265.201 4.39258 264.293 4.39258C263.658 4.39258 263.106 4.50977 262.638 4.74414C262.169 4.97852 261.778 5.34961 261.466 5.85742C261.153 6.36523 260.919 7.02441 260.763 7.83496C260.616 8.63574 260.543 9.60254 260.543 10.7354V11.9219C260.543 13.0547 260.611 14.0215 260.748 14.8223C260.885 15.623 261.104 16.2773 261.407 16.7852C261.71 17.293 262.1 17.6689 262.579 17.9131C263.067 18.1475 263.663 18.2646 264.366 18.2646C265.147 18.2646 265.806 18.1426 266.344 17.8984C266.881 17.6445 267.296 17.2637 267.589 16.7559C267.882 16.2383 268.038 15.5791 268.057 14.7783Z" fill="#6E68FE"/>
<path d="M288.252 16.3311C288.252 15.999 288.204 15.7012 288.106 15.4375C288.008 15.1641 287.828 14.9102 287.564 14.6758C287.3 14.4414 286.919 14.207 286.421 13.9727C285.933 13.7285 285.289 13.4746 284.488 13.2109C283.55 12.8984 282.647 12.5469 281.778 12.1562C280.909 11.7559 280.132 11.292 279.449 10.7646C278.765 10.2275 278.223 9.60254 277.823 8.88965C277.422 8.16699 277.222 7.32715 277.222 6.37012C277.222 5.45215 277.427 4.62695 277.837 3.89453C278.247 3.15234 278.819 2.52246 279.551 2.00488C280.293 1.47754 281.163 1.07715 282.159 0.803711C283.155 0.520508 284.244 0.378906 285.425 0.378906C286.988 0.378906 288.365 0.652344 289.556 1.19922C290.757 1.73633 291.695 2.50293 292.369 3.49902C293.052 4.48535 293.394 5.65234 293.394 7H288.282C288.282 6.46289 288.169 5.98926 287.945 5.5791C287.73 5.16895 287.403 4.84668 286.963 4.6123C286.524 4.37793 285.972 4.26074 285.308 4.26074C284.664 4.26074 284.122 4.3584 283.682 4.55371C283.243 4.74902 282.911 5.0127 282.686 5.34473C282.461 5.66699 282.349 6.02344 282.349 6.41406C282.349 6.73633 282.437 7.0293 282.613 7.29297C282.798 7.54688 283.057 7.78613 283.389 8.01074C283.731 8.23535 284.141 8.4502 284.62 8.65527C285.108 8.86035 285.655 9.06055 286.26 9.25586C287.393 9.61719 288.399 10.0225 289.278 10.4717C290.166 10.9111 290.914 11.4141 291.519 11.9805C292.134 12.5371 292.598 13.1719 292.911 13.8848C293.233 14.5977 293.394 15.4033 293.394 16.3018C293.394 17.2588 293.208 18.1084 292.837 18.8506C292.466 19.5928 291.934 20.2227 291.241 20.7402C290.547 21.248 289.717 21.6338 288.75 21.8975C287.784 22.1611 286.705 22.293 285.513 22.293C284.419 22.293 283.34 22.1562 282.276 21.8828C281.221 21.5996 280.264 21.1699 279.405 20.5938C278.545 20.0078 277.857 19.2607 277.339 18.3525C276.831 17.4346 276.578 16.3457 276.578 15.0859H281.734C281.734 15.7109 281.817 16.2383 281.983 16.668C282.149 17.0977 282.393 17.4443 282.715 17.708C283.038 17.9619 283.433 18.1475 283.902 18.2646C284.371 18.3721 284.908 18.4258 285.513 18.4258C286.167 18.4258 286.695 18.333 287.095 18.1475C287.496 17.9521 287.789 17.6982 287.974 17.3857C288.16 17.0635 288.252 16.7119 288.252 16.3311Z" fill="#6E68FE"/>
</svg>
